<?xml version="1.0" ?><!DOCTYPE svg  PUBLIC '-//W3C//DTD SVG 1.1//EN'  'http://www.w3.org/Graphics/SVG/1.1/DTD/svg11.dtd'><svg enable-background="new 0 0 256 256" height="256px" id="Layer_1" version="1.1" viewBox="0 0 256 256" width="256px" xml:space="preserve" xmlns="http://www.w3.org/2000/svg" xmlns:xlink="http://www.w3.org/1999/xlink"><g><path d="M246.035,80.604c-0.673-6.423-3.686-12.874-8.061-17.268c-0.918-0.96-11.792-11.969-26.751-11.969   c-2.543,0-5.064,0.321-7.54,0.96c4.889-18.637-9.85-33.186-11.023-34.307c-5.086-5.063-12.78-8.206-20.093-8.206   c-6.911,0-13.241,2.679-18.308,7.745c-10.711,10.71-10.064,24.949-9.718,32.6c0.079,1.733,0.146,3.231,0.064,4.1   c-0.368,3.909-3.714,6.831-3.728,6.843c-0.091,0.076-0.178,0.155-0.261,0.239l-79.277,79.277c-0.083,0.083-0.163,0.17-0.239,0.261   c-0.028,0.033-2.975,3.362-6.843,3.727c-0.965,0.091-2.359,0.015-4.103-0.064c-1.605-0.072-3.426-0.155-5.431-0.155   c-4.277,0-17.294,0-27.166,9.873c-7.339,7.339-8.182,15.545-7.596,21.136c0.673,6.422,3.685,12.872,8.059,17.265   c0.913,0.954,11.79,11.972,26.753,11.972c2.542,0,5.063-0.321,7.538-0.959c-4.883,18.629,9.843,33.177,11.023,34.305   c5.087,5.063,12.78,8.207,20.095,8.207c6.91,0,13.24-2.679,18.308-7.745c10.71-10.711,10.063-24.949,9.717-32.599   c-0.079-1.734-0.147-3.232-0.065-4.1c0.369-3.91,3.715-6.832,3.729-6.845c0.09-0.075,0.177-0.154,0.261-0.238l79.276-79.277   c0.07-0.07,0.156-0.165,0.221-0.24c0.029-0.033,2.951-3.38,6.861-3.748c0.963-0.092,2.357-0.014,4.1,0.064   c1.619,0.074,3.458,0.135,5.478,0.155c4.323,0,17.283-0.033,27.122-9.872C245.778,94.401,246.621,86.195,246.035,80.604z    M232.782,96.084c-6.749,6.748-15.507,7.528-21.508,7.528h-0.001c-1.825,0-3.55-0.078-5.071-0.146   c-2.07-0.095-3.929-0.159-5.213-0.038c-6.684,0.63-11.162,5.34-12.093,6.401l-79.067,79.068c-1.061,0.93-5.77,5.408-6.401,12.093   c-0.134,1.424-0.054,3.18,0.038,5.213c0.332,7.313,0.834,18.363-7.381,26.58c-3.585,3.584-7.842,5.401-12.651,5.401   c-5.208,0-10.891-2.316-14.476-5.901c-0.028-0.029-0.058-0.057-0.087-0.084c-0.149-0.141-14.836-14.239-7.36-30.542   c0.854-1.707,0.902-4.295-0.986-6.181c-1.006-1.006-2.334-1.56-3.739-1.56c-1.084,0-1.952,0.333-2.421,0.563   c-3.107,1.429-6.332,2.152-9.587,2.152c-11.793,0-20.893-9.417-20.976-9.505c-0.027-0.029-0.056-0.058-0.084-0.086   c-3.093-3.093-5.313-7.874-5.796-12.479c-0.405-3.86,0.186-9.535,5.296-14.646c6.749-6.749,15.507-7.529,21.509-7.529   c1.824,0,3.548,0.078,5.068,0.147c2.072,0.093,3.933,0.159,5.216,0.037c6.684-0.63,11.162-5.34,12.092-6.4l79.068-79.068   c1.062-0.931,5.771-5.409,6.4-12.093c0.135-1.424,0.055-3.18-0.037-5.213c-0.332-7.313-0.833-18.364,7.383-26.58   c3.584-3.584,7.84-5.401,12.65-5.401c5.207,0,10.89,2.316,14.475,5.901c0.028,0.029,0.058,0.057,0.087,0.084   c0.149,0.141,14.836,14.239,7.359,30.542c-0.853,1.704-0.901,4.29,0.987,6.181c1.006,1.006,2.334,1.56,3.739,1.56   c1.085,0,1.952-0.333,2.421-0.563c3.107-1.429,6.333-2.152,9.588-2.152c11.794,0,20.892,9.415,20.975,9.503   c0.027,0.029,0.056,0.058,0.084,0.086c3.093,3.093,5.313,7.875,5.796,12.48C238.483,85.299,237.893,90.974,232.782,96.084z" fill="#F0C061"/><circle cx="128" cy="128" fill="#F0C061" r="7.842"/><circle cx="176.466" cy="79.534" fill="#F0C061" r="7.842"/><circle cx="79.534" cy="176.466" fill="#F0C061" r="7.843"/></g></svg>